<?xml version="1.0" encoding="UTF-8"?>
<svg id="Livello_1" data-name="Livello 1" xmlns="http://www.w3.org/2000/svg" width="48.22mm" height="23.68mm" viewBox="0 0 136.68 67.13">
  <rect id="Rettangolo_89" data-name="Rettangolo 89" x="38" width="56.29" height="57.39" fill="#203d73"/>
  <path id="Tracciato_1111" data-name="Tracciato 1111" d="M34.54,28.25l3.59,.41v-4.77c-2.06,.45-3.55,2.25-3.59,4.36" fill="#9b9ca0"/>
  <path id="Tracciato_1112" data-name="Tracciato 1112" d="M34.2,33.91v-5.27c.14-2.83-2.05-5.23-4.87-5.37-.2,0-.41,0-.61,0-1.91-.15-3.77,.63-5,2.1h-.07v-7.62h-6.1v9.83c-1.11-2.69-4.4-4.3-8.28-4.3-5.15,0-9.26,3.32-9.26,8.29s4.11,8.27,9.26,8.27c3.82,0,6.95-1.12,8.28-3.94v3.55h6.1v-8.33c0-2.52,1.39-3.04,2.44-3.04,1.79,0,2,1.28,2,3.1v8.27h6.11v-3.01c.55,1.77,2.09,3.04,3.93,3.25v-8.97c-1.85,.57-3.43,1.49-3.93,3.19m-16.65-.06l-5.04-.68c-.41,1.46-1.71,2.5-3.22,2.57-2.51,0-3.16-2.18-3.16-4.1s.77-3.98,3.27-3.98c.67-.03,1.33,.16,1.89,.52,.5,.36,.84,.91,.94,1.52l5.32-.77v4.91Z" fill="#9b9ca0"/>
  <path id="Tracciato_1113" data-name="Tracciato 1113" d="M94.35,23.29h-.08v16.18h5.49v-10.82c.16-2.8-1.98-5.2-4.78-5.36-.21-.01-.42-.01-.63,0" fill="#9b9ca0"/>
  <path id="Tracciato_1114" data-name="Tracciato 1114" d="M117.02,31.6v-7.91h-5.54v1.97c-.7-1.66-2.9-2.37-4.67-2.38-5.23-.01-6.84,3.52-6.84,7.74s1.94,7.47,6.59,7.47c1.65,.03,3.24-.63,4.39-1.82h.06v1.5c0,1.34-.46,3.6-2.04,3.6-.61,.04-1.23-.04-1.81-.23-.53-.26-.91-.76-1-1.35l-5.91-.69c.13,5.01,3.5,5.97,8.58,6.04,7.39,.11,8.21-4.53,8.21-7.74v-6.2h0Zm-8.51,3.13c-2.16,0-2.7-2.12-2.7-3.96,0-1.72,.85-3.22,2.55-3.22s2.61,1.4,2.61,3.18-.25,4-2.47,4" fill="#9b9ca0"/>
  <path id="Tracciato_1115" data-name="Tracciato 1115" d="M126.28,36c-1.69,.09-3.14-1.22-3.22-2.91,0-.05,0-.11,0-.16h12.14c0-6.14-2.85-9.64-9.43-9.64-4.58-.24-8.49,3.27-8.74,7.86,0,.15-.01,.3-.01,.46v.03c0,5.26,3.99,7.99,9.28,7.99,3.77,0,7.1-1.05,8.38-4.46l-5.87-.64c-.57,.86-1.51,1.41-2.54,1.48m.06-9.16c1.57,.07,2.8,1.38,2.78,2.95h-6.04c.13-1.69,1.56-2.99,3.26-2.95" fill="#9b9ca0"/>
  <path id="Tracciato_1117" data-name="Tracciato 1117" d="M45.27,37.97l.46-.34c.09,.64,.27,1.26,.53,1.84h5.8c-.61-1.07-.88-2.3-.77-3.53v-6.48c0-3.04-1-6.12-7.91-6.17-1.77-.06-3.54,.14-5.25,.6v4.77l2.09,.24c.04-.68,.97-1.88,2.93-1.88,1.03,0,2.34,.23,2.34,1.29,0,1.01-1.18,1.24-2.04,1.4-1.79,.23-3.57,.57-5.31,1.02v8.97c.59,.11,1.18,.16,1.77,.16,1.98,.16,3.93-.52,5.37-1.89m-2.75-5.05c1.02-.17,2.01-.45,2.96-.84v1.62c0,1.24-1.92,2.74-3.16,2.74-1.37,0-2.36-.81-2.36-1.62,0-1.17,.87-1.55,2.55-1.89" fill="#fff"/>
  <rect id="Rettangolo_90" data-name="Rettangolo 90" x="52.25" y="17.76" width="6.02" height="21.71" fill="#fff"/>
  <rect id="Rettangolo_91" data-name="Rettangolo 91" x="59.25" y="17.76" width="6.02" height="21.71" fill="#fff"/>
  <path id="Tracciato_1118" data-name="Tracciato 1118" d="M89.21,25.69h-.06v-2h-5.8v5.72c-1-3.93-3.9-6.12-9.18-6.12s-8.9,3.74-8.9,8.33c0,5.26,4.04,8,9.43,8,3.84,0,7.23-1.05,8.52-4.46l-5.95-.64c-.59,.86-1.54,1.41-2.58,1.48-1.71,.1-3.17-1.2-3.28-2.91,0-.06,0-.11,0-.17h11.94v6.54h6.02v-8.34c0-2.52,1.36-3.04,2.4-3.04,1.76,0,1.97,1.28,1.97,3.1v8.27h.54V23.29c-1.99-.13-3.9,.78-5.06,2.4m-17.78,4.11c.15-1.71,1.6-3,3.32-2.95,1.59,.06,2.84,1.37,2.83,2.95h-6.15Z" fill="#fff"/>
  <path id="Tracciato_1119" data-name="Tracciato 1119" d="M37.88,67.01v-6.82h.94l2.14,3.45c.45,.71,.85,1.45,1.2,2.22h.02c-.08-.92-.1-1.75-.1-2.82v-2.85h.82v6.82h-.87l-2.12-3.46c-.46-.73-.88-1.5-1.25-2.28h-.03c.05,.87,.07,1.69,.07,2.82v2.92h-.82Z" fill="#203d73"/>
  <path id="Tracciato_1120" data-name="Tracciato 1120" d="M50.26,63.82h-2.6v2.46h2.89v.74h-3.75v-6.82h3.61v.74h-2.74v2.15h2.6v.73Z" fill="#203d73"/>
  <path id="Tracciato_1121" data-name="Tracciato 1121" d="M55.5,60.95h-2.03v-.75h4.94v.75h-2.04v6.07h-.87v-6.07Z" fill="#203d73"/>
  <path id="Tracciato_1122" data-name="Tracciato 1122" d="M63.05,67.01l-1.69-6.82h.91l.79,3.45c.2,.85,.38,1.7,.5,2.36h.02c.11-.68,.32-1.49,.54-2.37l.89-3.45h.9l.81,3.46c.19,.81,.37,1.62,.47,2.34h.02c.14-.75,.33-1.51,.53-2.36l.88-3.45h.88l-1.89,6.82h-.9l-.84-3.55c-.19-.73-.33-1.48-.44-2.23h-.02c-.13,.75-.3,1.49-.51,2.23l-.95,3.55h-.91Z" fill="#203d73"/>
  <path id="Tracciato_1123" data-name="Tracciato 1123" d="M78.45,63.53c0,2.35-1.4,3.59-3.1,3.59-1.71-.04-3.07-1.47-3.02-3.18,0-.09,0-.19,.02-.28-.21-1.76,1.06-3.36,2.82-3.56,.09-.01,.19-.02,.28-.02,1.7,.03,3.06,1.44,3.02,3.14,0,.11,0,.21-.02,.32m-5.18,.11c0,1.46,.77,2.76,2.13,2.76s2.14-1.29,2.14-2.83c0-1.36-.69-2.78-2.13-2.78s-2.14,1.35-2.14,2.85" fill="#203d73"/>
  <path id="Tracciato_1124" data-name="Tracciato 1124" d="M81.97,60.28c.55-.1,1.1-.15,1.66-.14,.69-.07,1.38,.13,1.93,.56,.35,.34,.54,.81,.52,1.3,.02,.8-.5,1.51-1.26,1.74v.03c.55,.25,.92,.78,.98,1.38,.11,.64,.28,1.26,.51,1.87h-.89c-.2-.53-.35-1.07-.45-1.63-.2-.94-.56-1.3-1.34-1.33h-.81v2.96h-.86v-6.73Zm.86,3.11h.88c.92,0,1.51-.51,1.51-1.3,0-.88-.62-1.27-1.53-1.28-.29,0-.57,.02-.85,.08v2.49Z" fill="#203d73"/>
  <path id="Tracciato_1125" data-name="Tracciato 1125" d="M89.71,60.19h.86v3.29h.03c.18-.27,.36-.51,.53-.73l2.04-2.56h1.07l-2.42,2.9,2.61,3.93h-1.02l-2.2-3.35-.64,.75v2.6h-.86v-6.82Z" fill="#203d73"/>
  <path id="Tracciato_1127" data-name="Tracciato 1127" d="M135.58,24.63l-.16,.04h-.35v-.34h.37l.12,.02s.06,.04,.06,.14c0,.07,0,.11-.03,.13m.36,.65v-.2l-.06-.22s-.05-.04-.07-.06c.04-.04,.09-.09,.09-.09l.07-.25c0-.17-.09-.34-.24-.41l-.29-.06h-.7v1.59h.34v-.62h.34l.13,.02s.06,.03,.07,.13l.02,.43,.09,.04h.24l.03-.18s0-.01-.02-.04l-.02-.11Z" fill="#9b9ca0"/>
  <path id="Tracciato_1128" data-name="Tracciato 1128" d="M135.32,25.92c-.63,0-1.14-.51-1.14-1.13s.51-1.14,1.13-1.14,1.14,.51,1.14,1.13h0c0,.63-.51,1.13-1.13,1.14m0-2.5c-.75,0-1.36,.61-1.36,1.36,0,.75,.61,1.36,1.36,1.36,.75,0,1.36-.6,1.36-1.35,0-.75-.61-1.36-1.36-1.37" fill="#9b9ca0"/>
</svg>